<svg xmlns="http://www.w3.org/2000/svg" xmlns:xlink="http://www.w3.org/1999/xlink" width="500" zoomAndPan="magnify" viewBox="0 0 375 374.999991" height="500" preserveAspectRatio="xMidYMid meet" version="1.0"><defs><g/><clipPath id="id1"><path d="M 81.492188 88.292969 L 293.742188 88.292969 L 293.742188 300.542969 L 81.492188 300.542969 Z M 81.492188 88.292969 " clip-rule="nonzero"/></clipPath><clipPath id="id2"><path d="M 145.503906 123.035156 L 229.503906 123.035156 L 229.503906 187.535156 L 145.503906 187.535156 Z M 145.503906 123.035156 " clip-rule="nonzero"/></clipPath></defs><g clip-path="url(#id1)"><path fill="#10324d" d="M 187.617188 88.292969 C 129.007812 88.292969 81.492188 135.808594 81.492188 194.417969 C 81.492188 253.03125 129.007812 300.542969 187.617188 300.542969 C 246.226562 300.542969 293.742188 253.03125 293.742188 194.417969 C 293.742188 135.808594 246.226562 88.292969 187.617188 88.292969 " fill-opacity="1" fill-rule="nonzero"/></g><path fill="#3aaded" d="M 187.484375 181.605469 C 187.484375 181.632812 187.484375 181.664062 187.484375 181.695312 C 187.480469 181.753906 187.476562 181.816406 187.472656 181.875 C 187.476562 181.816406 187.480469 181.753906 187.484375 181.695312 C 187.484375 181.664062 187.484375 181.632812 187.484375 181.605469 " fill-opacity="1" fill-rule="nonzero"/><g clip-path="url(#id2)"><path fill="#3aaded" d="M 213.265625 162.980469 C 214.566406 162.980469 215.636719 161.914062 215.636719 160.609375 C 215.636719 159.308594 214.566406 158.242188 213.265625 158.242188 C 211.960938 158.242188 210.894531 159.308594 210.894531 160.609375 C 210.894531 161.914062 211.960938 162.980469 213.265625 162.980469 Z M 213.265625 163.726562 C 214.980469 163.726562 216.382812 162.324219 216.382812 160.609375 C 216.382812 158.898438 214.980469 157.496094 213.265625 157.496094 C 211.550781 157.496094 210.160156 158.898438 210.160156 160.609375 C 210.160156 162.324219 211.550781 163.726562 213.265625 163.726562 Z M 207.878906 168.574219 C 209.179688 168.574219 210.238281 167.515625 210.238281 166.203125 C 210.238281 164.902344 209.179688 163.84375 207.878906 163.84375 C 206.574219 163.84375 205.507812 164.902344 205.507812 166.203125 C 205.507812 167.515625 206.574219 168.574219 207.878906 168.574219 Z M 207.878906 169.316406 C 209.59375 169.316406 210.984375 167.917969 210.984375 166.203125 C 210.984375 164.5 209.59375 163.097656 207.878906 163.097656 C 206.164062 163.097656 204.761719 164.5 204.761719 166.203125 C 204.761719 167.917969 206.164062 169.316406 207.878906 169.316406 Z M 182.996094 170.226562 C 184.296875 170.226562 185.355469 169.171875 185.355469 167.867188 C 185.355469 166.566406 184.296875 165.5 182.996094 165.5 C 181.691406 165.5 180.625 166.566406 180.625 167.867188 C 180.625 169.171875 181.691406 170.226562 182.996094 170.226562 Z M 182.996094 170.972656 C 184.710938 170.972656 186.101562 169.582031 186.101562 167.867188 C 186.101562 166.152344 184.710938 164.753906 182.996094 164.753906 C 181.28125 164.753906 179.878906 166.152344 179.878906 167.867188 C 179.878906 169.582031 181.28125 170.972656 182.996094 170.972656 Z M 172.210938 166.085938 C 173.511719 166.085938 174.582031 165.027344 174.582031 163.714844 C 174.582031 162.414062 173.511719 161.355469 172.210938 161.355469 C 170.90625 161.355469 169.839844 162.414062 169.839844 163.714844 C 169.839844 165.027344 170.90625 166.085938 172.210938 166.085938 Z M 172.210938 166.832031 C 173.925781 166.832031 175.324219 165.429688 175.324219 163.714844 C 175.324219 162.011719 173.925781 160.609375 172.210938 160.609375 C 170.496094 160.609375 169.105469 162.011719 169.105469 163.714844 C 169.105469 165.429688 170.496094 166.832031 172.210938 166.832031 Z M 162.667969 163.1875 C 163.980469 163.1875 165.039062 162.121094 165.039062 160.816406 C 165.039062 159.515625 163.980469 158.449219 162.667969 158.449219 C 161.367188 158.449219 160.308594 159.515625 160.308594 160.816406 C 160.308594 162.121094 161.367188 163.1875 162.667969 163.1875 Z M 162.667969 163.929688 C 164.382812 163.929688 165.785156 162.53125 165.785156 160.816406 C 165.785156 159.101562 164.382812 157.714844 162.667969 157.714844 C 160.964844 157.714844 159.5625 159.101562 159.5625 160.816406 C 159.5625 162.53125 160.964844 163.929688 162.667969 163.929688 Z M 180.300781 154.890625 C 181.605469 154.890625 182.664062 153.835938 182.664062 152.523438 C 182.664062 151.21875 181.605469 150.164062 180.300781 150.164062 C 178.988281 150.164062 177.929688 151.21875 177.929688 152.523438 C 177.929688 153.835938 178.988281 154.890625 180.300781 154.890625 Z M 180.300781 155.636719 C 182.015625 155.636719 183.40625 154.238281 183.40625 152.523438 C 183.40625 150.820312 182.015625 149.417969 180.300781 149.417969 C 178.585938 149.417969 177.1875 150.820312 177.1875 152.523438 C 177.1875 154.238281 178.585938 155.636719 180.300781 155.636719 Z M 198.128906 159.457031 C 199.433594 159.457031 200.5 158.386719 200.5 157.085938 C 200.5 155.785156 199.433594 154.714844 198.128906 154.714844 C 196.828125 154.714844 195.761719 155.785156 195.761719 157.085938 C 195.761719 158.386719 196.828125 159.457031 198.128906 159.457031 Z M 198.128906 160.199219 C 199.84375 160.199219 201.246094 158.800781 201.246094 157.085938 C 201.246094 155.371094 199.84375 153.980469 198.128906 153.980469 C 196.417969 153.980469 195.015625 155.371094 195.015625 157.085938 C 195.015625 158.800781 196.417969 160.199219 198.128906 160.199219 Z M 213.46875 147.75 C 215.289062 147.75 216.777344 146.261719 216.777344 144.445312 C 216.777344 142.625 215.289062 141.136719 213.46875 141.136719 C 211.648438 141.136719 210.171875 142.625 210.171875 144.445312 C 210.171875 146.261719 211.648438 147.75 213.46875 147.75 Z M 228.382812 162.578125 C 228.277344 161.492188 227.648438 159.792969 227.292969 158.964844 C 227.136719 158.574219 227.136719 158.402344 227.183594 158.125 C 227.191406 158.050781 227.207031 157.953125 227.214844 157.8125 C 227.222656 157.734375 227.222656 157.65625 227.222656 157.582031 L 208.175781 166.441406 L 206.878906 172.503906 C 207.121094 172.640625 207.375 172.886719 207.667969 173.175781 C 207.890625 173.390625 208.117188 173.613281 208.292969 173.738281 C 209.671875 174.746094 210.136719 175.085938 211.675781 175.699219 C 211.773438 175.734375 211.847656 175.78125 211.902344 175.8125 C 211.957031 175.84375 211.984375 175.859375 212.054688 175.882812 L 213.460938 176.289062 C 215.050781 176.660156 216.792969 176.683594 218.335938 176.351562 L 218.398438 176.335938 C 218.984375 176.21875 219.449219 176.125 219.984375 175.929688 C 220.101562 175.882812 220.230469 175.839844 220.355469 175.796875 C 220.484375 175.75 220.613281 175.707031 220.734375 175.660156 L 220.8125 175.628906 C 220.933594 175.585938 220.988281 175.566406 221.101562 175.515625 C 221.828125 175.203125 222.5625 174.789062 223.1875 174.34375 L 223.328125 174.242188 C 224.671875 173.257812 226.375 171.582031 227.128906 169.820312 C 227.203125 169.640625 227.292969 169.460938 227.382812 169.28125 C 227.503906 169.039062 227.621094 168.8125 227.703125 168.574219 C 227.996094 167.671875 228.195312 166.84375 228.316406 166.050781 C 228.488281 164.890625 228.503906 163.882812 228.382812 162.578125 Z M 207.476562 166.445312 L 186.503906 160.609375 L 183.476562 167.621094 L 206.175781 172.472656 C 206.179688 172.472656 206.183594 172.46875 206.1875 172.46875 Z M 205.796875 173.09375 L 183.28125 168.28125 L 182.128906 176.097656 C 182.421875 176.300781 182.703125 176.675781 183.046875 177.164062 C 183.125 177.273438 183.191406 177.371094 183.246094 177.4375 C 183.886719 178.261719 184.871094 179.148438 185.816406 179.757812 L 187.472656 180.714844 C 188.445312 181.28125 189.796875 181.695312 191.480469 181.945312 C 193.890625 182.3125 196.59375 181.878906 199.089844 180.722656 C 200.152344 180.234375 201.273438 179.476562 202.246094 178.582031 C 202.871094 178.019531 203.363281 177.464844 203.855469 176.777344 C 204.414062 176.019531 204.828125 175.390625 205.1875 174.597656 C 205.238281 174.492188 205.273438 174.421875 205.3125 174.359375 C 205.335938 174.316406 205.359375 174.277344 205.382812 174.210938 C 205.398438 174.179688 205.425781 174.101562 205.460938 173.996094 C 205.605469 173.59375 205.710938 173.304688 205.796875 173.09375 Z M 182.617188 168.089844 L 171.882812 163.957031 L 171.488281 157.585938 L 163.003906 161.050781 L 162.40625 182.578125 L 165.796875 177.492188 L 181.328125 176.128906 C 181.367188 176.097656 181.402344 176.070312 181.445312 176.039062 Z M 180.796875 176.863281 L 166.183594 178.144531 L 162.558594 183.59375 C 165.214844 186.246094 167.875 187.144531 170.269531 186.179688 C 172.496094 185.28125 173.980469 182.878906 173.984375 181.683594 L 173.984375 181.523438 L 174.078125 181.394531 C 174.386719 180.980469 174.527344 180.734375 174.613281 180.585938 C 174.832031 180.210938 174.964844 180.121094 175.398438 180.0625 C 175.554688 180.042969 175.789062 180.007812 176.183594 179.917969 C 177.269531 179.660156 178.273438 179.195312 179.082031 178.574219 C 179.152344 178.523438 179.210938 178.476562 179.269531 178.4375 C 179.34375 178.382812 179.410156 178.335938 179.480469 178.269531 C 180.039062 177.761719 180.449219 177.316406 180.796875 176.863281 Z M 162.316406 161.171875 L 150.019531 161.570312 C 149.914062 161.726562 149.792969 161.855469 149.652344 161.996094 C 149.308594 162.351562 148.789062 162.882812 148.066406 164.457031 C 147.5625 165.574219 147.335938 167.421875 147.546875 168.667969 C 147.65625 169.296875 147.800781 169.757812 147.980469 170.339844 L 148.03125 170.503906 C 148.15625 170.898438 148.539062 171.585938 148.816406 171.96875 L 150.292969 173.644531 C 150.464844 173.800781 150.613281 173.902344 150.746094 174 C 151.046875 174.214844 151.394531 174.457031 151.394531 175.035156 C 151.363281 176.765625 151.765625 178.367188 152.53125 179.550781 L 153.585938 180.964844 C 154.148438 181.578125 155.253906 182.449219 156.085938 182.789062 C 157.449219 183.339844 159.511719 183.78125 160.800781 183.445312 L 160.964844 183.398438 C 161.1875 183.335938 161.429688 183.265625 161.703125 183.253906 Z M 149.265625 160.121094 C 149.300781 160.148438 149.359375 160.175781 149.417969 160.207031 C 149.570312 160.28125 149.753906 160.375 149.902344 160.511719 L 164.886719 145.875 L 150.394531 149.117188 L 150.359375 149.160156 C 150.261719 149.285156 150.164062 149.351562 150.089844 149.398438 C 150.070312 149.410156 150.050781 149.425781 150.023438 149.441406 L 149.976562 149.472656 C 149.917969 149.507812 149.875 149.527344 149.839844 149.546875 C 149.773438 149.578125 149.765625 149.585938 149.695312 149.640625 C 149.550781 149.757812 149.425781 149.878906 149.324219 149.992188 L 149.277344 150.046875 L 149.214844 150.085938 C 147.511719 151.160156 146.496094 153 146.496094 155.007812 C 146.496094 156.730469 147.246094 158.351562 148.554688 159.453125 L 148.617188 159.515625 C 148.808594 159.75 149.03125 159.960938 149.265625 160.121094 Z M 150.441406 148.402344 L 165.644531 145 L 165.628906 130.824219 C 165.121094 130.785156 164.617188 130.953125 164.226562 131.296875 L 164.054688 131.414062 L 163.949219 131.433594 C 161.894531 131.75 160.152344 133.175781 159.40625 135.148438 L 159.363281 135.261719 L 159.269531 135.339844 C 158.695312 135.84375 158.210938 136.480469 157.824219 137.234375 C 157.785156 137.308594 157.753906 137.371094 157.730469 137.4375 L 157.664062 137.613281 L 157.496094 137.699219 C 156.039062 138.457031 154.644531 139.59375 153.472656 140.988281 C 151.503906 143.328125 150.390625 146.066406 150.441406 148.402344 Z M 150.519531 160.867188 L 162.597656 160.476562 L 171.652344 156.777344 L 179.558594 152.53125 L 166.054688 145.691406 Z M 179.152344 153.53125 L 172.15625 157.285156 L 172.492188 162.738281 Z M 172.75 163.554688 L 182.8125 167.429688 L 185.910156 160.25 L 180.3125 153.09375 Z M 179.503906 140.226562 C 179.34375 140.390625 179.203125 140.574219 179.085938 140.769531 L 166.3125 131.0625 L 166.332031 144.863281 L 178.648438 142.59375 C 178.664062 142.824219 178.703125 143.050781 178.769531 143.265625 L 167.050781 145.429688 L 180.03125 152 L 180.976562 145.378906 C 181.195312 145.4375 181.421875 145.46875 181.652344 145.476562 L 180.660156 152.425781 L 186.4375 159.8125 L 197.429688 156.917969 L 183.816406 144.683594 C 183.988281 144.53125 184.140625 144.359375 184.273438 144.175781 L 197.964844 156.476562 L 201.441406 145.421875 C 201.648438 145.511719 201.867188 145.582031 202.09375 145.628906 L 198.804688 156.085938 L 210.871094 146.140625 C 210.996094 146.335938 211.144531 146.511719 211.308594 146.671875 L 198.882812 156.910156 L 213.035156 160.207031 L 219.292969 140.933594 L 216.226562 143 C 216.121094 142.796875 215.992188 142.605469 215.84375 142.433594 L 219.429688 140.015625 C 219.355469 137.359375 217.042969 134.3125 213.644531 132.402344 C 211.386719 131.136719 208.933594 130.53125 206.816406 130.691406 L 212.367188 141.535156 C 212.152344 141.617188 211.949219 141.722656 211.757812 141.847656 L 206.304688 131.191406 L 203.871094 139.703125 C 203.664062 139.617188 203.441406 139.554688 203.214844 139.515625 L 205.785156 130.511719 L 205.761719 130.453125 C 205.332031 129.4375 204.617188 128.5625 203.699219 127.921875 C 202.039062 126.78125 199.898438 126.585938 198.050781 127.386719 L 202.054688 139.535156 C 201.828125 139.582031 201.609375 139.65625 201.40625 139.753906 L 197.425781 127.6875 L 184.207031 140.472656 C 184.066406 140.289062 183.90625 140.121094 183.730469 139.976562 L 197.007812 127.140625 C 196.6875 126.769531 196.324219 126.441406 195.929688 126.175781 C 194.085938 124.898438 191.722656 124.78125 189.757812 125.875 L 189.609375 125.957031 L 189.242188 125.894531 L 189.136719 125.800781 C 189.003906 125.683594 188.859375 125.574219 188.664062 125.429688 C 186.65625 124.050781 183.960938 124.074219 181.96875 125.492188 L 181.871094 125.558594 L 181.753906 125.578125 C 181.53125 125.609375 181.34375 125.644531 181.160156 125.695312 C 180.933594 125.75 180.78125 125.792969 180.671875 125.824219 L 181.828125 139.265625 C 181.800781 139.265625 181.777344 139.261719 181.75 139.261719 C 181.542969 139.261719 181.339844 139.285156 181.144531 139.324219 L 179.984375 125.851562 C 178.011719 125.285156 175.644531 125.316406 173.289062 125.957031 C 170.332031 126.761719 167.839844 128.402344 166.546875 130.378906 Z M 212.601562 160.808594 L 198.363281 157.492188 L 198.296875 157.695312 L 198.039062 157.464844 L 187.617188 160.210938 L 207.773438 165.820312 Z M 209.402344 165.117188 L 224.28125 158.191406 L 213.445312 160.917969 Z M 220.109375 140.644531 L 213.785156 160.128906 L 227.273438 156.734375 C 228.277344 154.195312 227.414062 151.351562 225.164062 149.800781 C 224.972656 149.660156 224.769531 149.535156 224.511719 149.402344 L 224.425781 149.359375 L 224.296875 149.207031 C 224.273438 149.175781 224.246094 149.140625 224.214844 149.109375 L 223.980469 148.875 L 224.109375 148.570312 C 225.183594 146.039062 224.316406 143.070312 222.050781 141.507812 C 221.453125 141.09375 220.800781 140.808594 220.109375 140.644531 Z M 229.285156 166.195312 C 229.15625 167.046875 228.945312 167.921875 228.632812 168.882812 C 228.527344 169.191406 228.390625 169.460938 228.257812 169.722656 C 228.175781 169.882812 228.097656 170.039062 228.03125 170.203125 C 227.324219 171.855469 225.78125 173.660156 223.910156 175.03125 L 223.761719 175.136719 C 223.078125 175.625 222.273438 176.074219 221.5 176.40625 C 221.371094 176.46875 221.304688 176.492188 221.148438 176.550781 L 221.085938 176.574219 C 220.960938 176.625 220.816406 176.671875 220.675781 176.722656 C 220.558594 176.761719 220.441406 176.800781 220.328125 176.84375 C 219.714844 177.070312 219.195312 177.175781 218.59375 177.296875 L 218.535156 177.308594 C 216.859375 177.667969 214.96875 177.644531 213.214844 177.238281 L 211.769531 176.820312 C 211.578125 176.757812 211.476562 176.699219 211.402344 176.65625 C 211.378906 176.640625 211.355469 176.625 211.320312 176.609375 C 209.65625 175.949219 209.089844 175.535156 207.714844 174.53125 C 207.488281 174.363281 207.230469 174.117188 206.984375 173.875 C 206.890625 173.785156 206.769531 173.667969 206.664062 173.566406 C 206.558594 173.839844 206.4375 174.175781 206.386719 174.324219 C 206.339844 174.449219 206.308594 174.539062 206.296875 174.570312 C 206.25 174.691406 206.207031 174.761719 206.164062 174.84375 C 206.140625 174.886719 206.113281 174.929688 206.082031 175.003906 C 205.683594 175.875 205.238281 176.546875 204.648438 177.351562 C 204.125 178.082031 203.574219 178.703125 202.90625 179.308594 C 201.863281 180.265625 200.652344 181.085938 199.5 181.613281 C 196.835938 182.847656 193.933594 183.308594 191.335938 182.914062 C 189.527344 182.648438 188.0625 182.191406 186.980469 181.558594 L 185.308594 180.589844 C 184.253906 179.917969 183.175781 178.945312 182.472656 178.039062 C 182.410156 177.960938 182.332031 177.851562 182.246094 177.726562 C 182.148438 177.585938 181.96875 177.335938 181.8125 177.140625 L 181.769531 177.203125 C 181.347656 177.796875 180.847656 178.347656 180.144531 178.992188 C 180.035156 179.089844 179.9375 179.160156 179.84375 179.230469 C 179.792969 179.265625 179.742188 179.304688 179.679688 179.351562 C 178.761719 180.054688 177.628906 180.582031 176.40625 180.871094 C 175.964844 180.972656 175.695312 181.011719 175.53125 181.03125 C 175.515625 181.035156 175.5 181.035156 175.484375 181.039062 C 175.476562 181.050781 175.46875 181.0625 175.460938 181.078125 C 175.375 181.226562 175.234375 181.46875 174.957031 181.855469 C 174.839844 183.410156 173.210938 186.046875 170.636719 187.085938 C 169.984375 187.347656 169.210938 187.539062 168.324219 187.539062 C 166.585938 187.539062 164.433594 186.796875 162.003906 184.421875 L 161.65625 184.945312 L 161.675781 184.246094 C 161.539062 184.261719 161.398438 184.292969 161.234375 184.339844 C 161.175781 184.355469 161.113281 184.375 161.050781 184.390625 C 159.535156 184.789062 157.28125 184.328125 155.714844 183.695312 C 154.734375 183.292969 153.484375 182.316406 152.84375 181.601562 L 152.8125 181.566406 L 151.726562 180.109375 C 150.839844 178.738281 150.378906 176.941406 150.414062 175.027344 C 150.414062 174.992188 150.410156 174.980469 150.410156 174.980469 C 150.390625 174.945312 150.265625 174.859375 150.175781 174.796875 C 150.023438 174.6875 149.835938 174.554688 149.613281 174.347656 L 149.574219 174.3125 L 148.039062 172.5625 C 147.710938 172.117188 147.257812 171.3125 147.09375 170.796875 L 147.042969 170.628906 C 146.859375 170.039062 146.703125 169.527344 146.582031 168.835938 C 146.335938 167.398438 146.59375 165.34375 147.175781 164.054688 C 147.96875 162.320312 148.558594 161.714844 148.953125 161.3125 C 149.011719 161.25 149.066406 161.195312 149.109375 161.148438 C 149.0625 161.121094 149.011719 161.097656 148.976562 161.078125 C 148.875 161.027344 148.777344 160.976562 148.707031 160.929688 C 148.40625 160.714844 148.132812 160.460938 147.890625 160.171875 C 146.378906 158.886719 145.515625 157.007812 145.515625 155.007812 C 145.515625 152.6875 146.679688 150.554688 148.632812 149.296875 C 148.761719 149.15625 148.910156 149.015625 149.078125 148.882812 C 149.21875 148.765625 149.289062 148.726562 149.394531 148.675781 C 149.414062 148.664062 149.4375 148.652344 149.46875 148.636719 C 149.34375 146.015625 150.546875 142.945312 152.722656 140.359375 C 153.9375 138.917969 155.375 137.726562 156.890625 136.914062 C 156.910156 136.875 156.929688 136.835938 156.949219 136.792969 C 157.375 135.960938 157.90625 135.257812 158.53125 134.6875 C 159.410156 132.484375 161.359375 130.890625 163.667969 130.488281 C 164.246094 130.015625 164.980469 129.785156 165.722656 129.84375 C 167.144531 127.671875 169.847656 125.878906 173.03125 125.011719 C 175.570312 124.324219 178.140625 124.289062 180.292969 124.914062 C 180.414062 124.878906 180.601562 124.824219 180.914062 124.746094 C 181.097656 124.699219 181.289062 124.660156 181.496094 124.625 C 183.8125 123.039062 186.90625 123.035156 189.230469 124.628906 C 189.324219 124.699219 189.4375 124.78125 189.554688 124.875 C 191.789062 123.757812 194.417969 123.933594 196.480469 125.367188 C 196.929688 125.667969 197.347656 126.035156 197.714844 126.453125 L 197.738281 126.433594 L 197.742188 126.453125 C 199.882812 125.558594 202.34375 125.800781 204.257812 127.117188 C 205.226562 127.792969 206 128.691406 206.507812 129.734375 C 208.871094 129.492188 211.621094 130.148438 214.121094 131.550781 C 217.628906 133.515625 219.996094 136.527344 220.363281 139.390625 L 220.558594 139.253906 L 220.414062 139.703125 C 221.195312 139.898438 221.933594 140.234375 222.605469 140.703125 C 225.15625 142.457031 226.1875 145.746094 225.140625 148.628906 C 225.367188 148.753906 225.558594 148.875 225.734375 149.003906 C 228.339844 150.800781 229.347656 154.101562 228.199219 157.058594 C 228.214844 157.328125 228.210938 157.59375 228.191406 157.871094 C 228.183594 158.050781 228.164062 158.175781 228.148438 158.273438 C 228.128906 158.414062 228.128906 158.414062 228.199219 158.585938 C 228.664062 159.675781 229.25 161.355469 229.359375 162.484375 C 229.488281 163.875 229.46875 164.949219 229.285156 166.195312 Z M 205.675781 143.4375 L 210.375 144.253906 C 210.390625 144.019531 210.425781 143.792969 210.492188 143.578125 L 205.789062 142.761719 C 205.777344 142.996094 205.738281 143.222656 205.675781 143.4375 Z M 184.832031 142.742188 L 199.597656 142.886719 C 199.585938 142.78125 199.582031 142.679688 199.582031 142.574219 C 199.582031 142.445312 199.589844 142.324219 199.605469 142.199219 L 184.839844 142.054688 C 184.851562 142.15625 184.855469 142.261719 184.855469 142.367188 C 184.855469 142.492188 184.847656 142.617188 184.832031 142.742188 Z M 202.699219 145.851562 C 204.5 145.851562 205.964844 144.386719 205.964844 142.570312 C 205.964844 140.769531 204.5 139.304688 202.699219 139.304688 C 200.882812 139.304688 199.414062 140.769531 199.414062 142.570312 C 199.414062 144.386719 200.882812 145.851562 202.699219 145.851562 Z M 165.988281 147.636719 C 167.292969 147.636719 168.359375 146.578125 168.359375 145.277344 C 168.359375 143.972656 167.292969 142.90625 165.988281 142.90625 C 164.6875 142.90625 163.621094 143.972656 163.621094 145.277344 C 163.621094 146.578125 164.6875 147.636719 165.988281 147.636719 Z M 165.988281 148.378906 C 167.703125 148.378906 169.105469 146.988281 169.105469 145.277344 C 169.105469 143.5625 167.703125 142.160156 165.988281 142.160156 C 164.277344 142.160156 162.882812 143.5625 162.882812 145.277344 C 162.882812 146.988281 164.277344 148.378906 165.988281 148.378906 Z M 181.753906 145.601562 C 179.976562 145.601562 178.515625 144.144531 178.515625 142.367188 C 178.515625 140.585938 179.976562 139.144531 181.753906 139.144531 C 183.53125 139.144531 184.976562 140.585938 184.976562 142.367188 C 184.976562 144.144531 183.53125 145.601562 181.753906 145.601562 " fill-opacity="1" fill-rule="nonzero"/></g><g fill="#ffffff" fill-opacity="1"><g transform="translate(121.227307, 217.950287)"><g><path d="M 10.546875 -1.25 L 3.71875 -15.234375 L 3.71875 0 L 1.921875 0 L 1.921875 -17.453125 L 4.609375 -17.453125 L 10.5625 -5.0625 L 16.5 -17.453125 L 19.1875 -17.453125 L 19.1875 0 L 17.375 0 L 17.375 -15.25 Z M 10.546875 -1.25 "/></g></g></g><g fill="#ffffff" fill-opacity="1"><g transform="translate(142.330547, 217.950287)"><g><path d="M 1.921875 0 L 1.921875 -17.453125 L 3.84375 -17.453125 L 3.84375 0 Z M 1.921875 0 "/></g></g></g><g fill="#ffffff" fill-opacity="1"><g transform="translate(148.085977, 217.950287)"><g><path d="M 1.921875 -17.453125 L 3.84375 -17.453125 L 14.328125 -3.296875 L 14.328125 -17.453125 L 16.15625 -17.453125 L 16.15625 0 L 14.453125 0 L 3.734375 -14.53125 L 3.734375 0 L 1.921875 0 Z M 1.921875 -17.453125 "/></g></g></g><g fill="#ffffff" fill-opacity="1"><g transform="translate(166.149559, 217.950287)"><g><path d="M 1.921875 0 L 1.921875 -17.453125 L 7.671875 -17.453125 C 8.984375 -17.453125 10.203125 -17.226562 11.328125 -16.78125 C 12.460938 -16.34375 13.4375 -15.738281 14.25 -14.96875 C 15.0625 -14.207031 15.695312 -13.289062 16.15625 -12.21875 C 16.613281 -11.144531 16.84375 -9.976562 16.84375 -8.71875 C 16.84375 -7.457031 16.613281 -6.289062 16.15625 -5.21875 C 15.695312 -4.144531 15.066406 -3.226562 14.265625 -2.46875 C 13.460938 -1.707031 12.492188 -1.101562 11.359375 -0.65625 C 10.234375 -0.21875 9.003906 0 7.671875 0 Z M 7.78125 -15.703125 L 3.84375 -15.703125 L 3.84375 -1.75 L 7.78125 -1.75 C 8.769531 -1.75 9.703125 -1.925781 10.578125 -2.28125 C 11.460938 -2.632812 12.222656 -3.125 12.859375 -3.75 C 13.492188 -4.375 13.992188 -5.113281 14.359375 -5.96875 C 14.722656 -6.820312 14.90625 -7.738281 14.90625 -8.71875 C 14.90625 -9.695312 14.722656 -10.613281 14.359375 -11.46875 C 13.992188 -12.332031 13.492188 -13.070312 12.859375 -13.6875 C 12.222656 -14.3125 11.460938 -14.800781 10.578125 -15.15625 C 9.703125 -15.519531 8.769531 -15.703125 7.78125 -15.703125 Z M 7.78125 -15.703125 "/></g></g></g><g fill="#ffffff" fill-opacity="1"><g transform="translate(184.088562, 217.950287)"><g/></g></g><g fill="#ffffff" fill-opacity="1"><g transform="translate(189.445348, 217.950287)"><g><path d="M 1.921875 0 L 1.921875 -17.453125 L 3.84375 -17.453125 L 3.84375 -9.640625 L 13.984375 -9.640625 L 13.984375 -17.453125 L 15.90625 -17.453125 L 15.90625 0 L 13.984375 0 L 13.984375 -7.921875 L 3.84375 -7.921875 L 3.84375 0 Z M 1.921875 0 "/></g></g></g><g fill="#ffffff" fill-opacity="1"><g transform="translate(207.259773, 217.950287)"><g><path d="M 1.921875 0 L 1.921875 -17.453125 L 14.40625 -17.453125 L 14.40625 -15.75 L 3.84375 -15.75 L 3.84375 -9.640625 L 10.734375 -9.640625 L 10.734375 -7.96875 L 3.84375 -7.96875 L 3.84375 -1.6875 L 14.5 -1.6875 L 14.5 0 Z M 1.921875 0 "/></g></g></g><g fill="#ffffff" fill-opacity="1"><g transform="translate(222.607591, 217.950287)"><g><path d="M 1.921875 0 L 1.921875 -17.453125 L 3.84375 -17.453125 L 3.84375 -1.71875 L 14.234375 -1.71875 L 14.234375 0 Z M 1.921875 0 "/></g></g></g><g fill="#ffffff" fill-opacity="1"><g transform="translate(237.656424, 217.950287)"><g><path d="M 1.921875 0 L 1.921875 -17.453125 L 9.5 -17.453125 C 11.1875 -17.453125 12.546875 -16.988281 13.578125 -16.0625 C 14.609375 -15.132812 15.125 -13.914062 15.125 -12.40625 C 15.125 -10.894531 14.601562 -9.675781 13.5625 -8.75 C 12.53125 -7.820312 11.175781 -7.359375 9.5 -7.359375 L 3.84375 -7.359375 L 3.84375 0 Z M 9.34375 -15.71875 L 3.84375 -15.71875 L 3.84375 -9.015625 L 9.34375 -9.015625 C 10.519531 -9.015625 11.457031 -9.316406 12.15625 -9.921875 C 12.851562 -10.535156 13.203125 -11.359375 13.203125 -12.390625 C 13.203125 -13.421875 12.851562 -14.234375 12.15625 -14.828125 C 11.457031 -15.421875 10.519531 -15.71875 9.34375 -15.71875 Z M 9.34375 -15.71875 "/></g></g></g><g fill="#ffffff" fill-opacity="1"><g transform="translate(125.63482, 240.086626)"><g><path d="M 0.046875 0 L 2.953125 -7 L 3.875 -7 L 6.75 0 L 5.90625 0 L 5.03125 -2.203125 L 1.734375 -2.203125 L 0.84375 0 Z M 2 -2.859375 L 4.765625 -2.859375 L 3.390625 -6.28125 Z M 2 -2.859375 "/></g></g></g><g fill="#ffffff" fill-opacity="1"><g transform="translate(132.421341, 240.086626)"><g/></g></g><g fill="#ffffff" fill-opacity="1"><g transform="translate(134.570238, 240.086626)"><g><path d="M 2.203125 0.09375 C 1.660156 0.09375 1.21875 -0.046875 0.875 -0.328125 C 0.53125 -0.609375 0.359375 -0.972656 0.359375 -1.421875 C 0.359375 -1.890625 0.535156 -2.257812 0.890625 -2.53125 C 1.253906 -2.8125 1.742188 -2.953125 2.359375 -2.953125 C 2.628906 -2.953125 2.890625 -2.921875 3.140625 -2.859375 C 3.390625 -2.796875 3.617188 -2.710938 3.828125 -2.609375 L 3.828125 -3.265625 C 3.828125 -3.671875 3.710938 -3.972656 3.484375 -4.171875 C 3.265625 -4.378906 2.9375 -4.484375 2.5 -4.484375 C 2.25 -4.484375 2 -4.445312 1.75 -4.375 C 1.5 -4.300781 1.226562 -4.191406 0.9375 -4.046875 L 0.65625 -4.609375 C 1.007812 -4.785156 1.335938 -4.910156 1.640625 -4.984375 C 1.953125 -5.066406 2.257812 -5.109375 2.5625 -5.109375 C 3.195312 -5.109375 3.6875 -4.957031 4.03125 -4.65625 C 4.375 -4.351562 4.546875 -3.925781 4.546875 -3.375 L 4.546875 0 L 3.828125 0 L 3.828125 -0.484375 C 3.597656 -0.296875 3.347656 -0.148438 3.078125 -0.046875 C 2.816406 0.046875 2.523438 0.09375 2.203125 0.09375 Z M 1.0625 -1.4375 C 1.0625 -1.15625 1.179688 -0.925781 1.421875 -0.75 C 1.660156 -0.570312 1.96875 -0.484375 2.34375 -0.484375 C 2.644531 -0.484375 2.914062 -0.53125 3.15625 -0.625 C 3.40625 -0.71875 3.628906 -0.863281 3.828125 -1.0625 L 3.828125 -2.015625 C 3.617188 -2.148438 3.394531 -2.25 3.15625 -2.3125 C 2.925781 -2.375 2.664062 -2.40625 2.375 -2.40625 C 1.976562 -2.40625 1.660156 -2.316406 1.421875 -2.140625 C 1.179688 -1.960938 1.0625 -1.726562 1.0625 -1.4375 Z M 1.0625 -1.4375 "/></g></g></g><g fill="#ffffff" fill-opacity="1"><g transform="translate(139.727589, 240.086626)"><g><path d="M 1 -5.96875 C 0.863281 -5.96875 0.742188 -6.015625 0.640625 -6.109375 C 0.546875 -6.210938 0.5 -6.332031 0.5 -6.46875 C 0.5 -6.613281 0.546875 -6.734375 0.640625 -6.828125 C 0.742188 -6.921875 0.863281 -6.96875 1 -6.96875 C 1.132812 -6.96875 1.25 -6.921875 1.34375 -6.828125 C 1.445312 -6.734375 1.5 -6.613281 1.5 -6.46875 C 1.5 -6.332031 1.445312 -6.210938 1.34375 -6.109375 C 1.25 -6.015625 1.132812 -5.96875 1 -5.96875 Z M 0.078125 2.078125 C -0.015625 2.078125 -0.0976562 2.070312 -0.171875 2.0625 C -0.253906 2.050781 -0.320312 2.035156 -0.375 2.015625 L -0.375 1.40625 C -0.320312 1.414062 -0.265625 1.421875 -0.203125 1.421875 C -0.148438 1.429688 -0.0859375 1.4375 -0.015625 1.4375 C 0.210938 1.4375 0.375 1.382812 0.46875 1.28125 C 0.570312 1.175781 0.625 1.003906 0.625 0.765625 L 0.625 -5.015625 L 1.375 -5.015625 L 1.375 0.8125 C 1.375 1.21875 1.257812 1.53125 1.03125 1.75 C 0.800781 1.96875 0.484375 2.078125 0.078125 2.078125 Z M 0.078125 2.078125 "/></g></g></g><g fill="#ffffff" fill-opacity="1"><g transform="translate(141.726564, 240.086626)"><g><path d="M 1.34375 -5.015625 L 1.34375 -1.984375 C 1.34375 -1.546875 1.46875 -1.195312 1.71875 -0.9375 C 1.96875 -0.675781 2.304688 -0.546875 2.734375 -0.546875 C 3.035156 -0.546875 3.304688 -0.613281 3.546875 -0.75 C 3.785156 -0.882812 3.976562 -1.078125 4.125 -1.328125 L 4.125 -5.015625 L 4.859375 -5.015625 L 4.859375 0 L 4.125 0 L 4.125 -0.578125 C 3.925781 -0.347656 3.695312 -0.175781 3.4375 -0.0625 C 3.175781 0.0390625 2.878906 0.09375 2.546875 0.09375 C 1.972656 0.09375 1.503906 -0.0820312 1.140625 -0.4375 C 0.785156 -0.800781 0.609375 -1.269531 0.609375 -1.84375 L 0.609375 -5.015625 Z M 1.34375 -5.015625 "/></g></g></g><g fill="#ffffff" fill-opacity="1"><g transform="translate(147.213753, 240.086626)"><g><path d="M 4.546875 0 L 4.546875 -0.53125 C 4.328125 -0.332031 4.078125 -0.179688 3.796875 -0.078125 C 3.523438 0.0234375 3.234375 0.078125 2.921875 0.078125 C 2.566406 0.078125 2.234375 0.015625 1.921875 -0.109375 C 1.617188 -0.242188 1.351562 -0.425781 1.125 -0.65625 C 0.90625 -0.894531 0.726562 -1.171875 0.59375 -1.484375 C 0.46875 -1.804688 0.40625 -2.148438 0.40625 -2.515625 C 0.40625 -2.867188 0.46875 -3.203125 0.59375 -3.515625 C 0.726562 -3.835938 0.90625 -4.113281 1.125 -4.34375 C 1.351562 -4.570312 1.625 -4.753906 1.9375 -4.890625 C 2.25 -5.023438 2.582031 -5.09375 2.9375 -5.09375 C 3.21875 -5.09375 3.492188 -5.039062 3.765625 -4.9375 C 4.046875 -4.84375 4.300781 -4.703125 4.53125 -4.515625 L 4.53125 -7 L 5.265625 -7.171875 L 5.265625 0 Z M 1.125 -2.515625 C 1.125 -2.242188 1.171875 -1.988281 1.265625 -1.75 C 1.367188 -1.507812 1.503906 -1.300781 1.671875 -1.125 C 1.835938 -0.957031 2.03125 -0.820312 2.25 -0.71875 C 2.476562 -0.613281 2.722656 -0.5625 2.984375 -0.5625 C 3.296875 -0.5625 3.585938 -0.625 3.859375 -0.75 C 4.128906 -0.875 4.351562 -1.046875 4.53125 -1.265625 L 4.53125 -3.75 C 4.351562 -3.957031 4.128906 -4.125 3.859375 -4.25 C 3.585938 -4.375 3.296875 -4.4375 2.984375 -4.4375 C 2.460938 -4.4375 2.019531 -4.253906 1.65625 -3.890625 C 1.300781 -3.523438 1.125 -3.066406 1.125 -2.515625 Z M 1.125 -2.515625 "/></g></g></g><g fill="#ffffff" fill-opacity="1"><g transform="translate(153.110732, 240.086626)"><g><path d="M 2.203125 0.09375 C 1.660156 0.09375 1.21875 -0.046875 0.875 -0.328125 C 0.53125 -0.609375 0.359375 -0.972656 0.359375 -1.421875 C 0.359375 -1.890625 0.535156 -2.257812 0.890625 -2.53125 C 1.253906 -2.8125 1.742188 -2.953125 2.359375 -2.953125 C 2.628906 -2.953125 2.890625 -2.921875 3.140625 -2.859375 C 3.390625 -2.796875 3.617188 -2.710938 3.828125 -2.609375 L 3.828125 -3.265625 C 3.828125 -3.671875 3.710938 -3.972656 3.484375 -4.171875 C 3.265625 -4.378906 2.9375 -4.484375 2.5 -4.484375 C 2.25 -4.484375 2 -4.445312 1.75 -4.375 C 1.5 -4.300781 1.226562 -4.191406 0.9375 -4.046875 L 0.65625 -4.609375 C 1.007812 -4.785156 1.335938 -4.910156 1.640625 -4.984375 C 1.953125 -5.066406 2.257812 -5.109375 2.5625 -5.109375 C 3.195312 -5.109375 3.6875 -4.957031 4.03125 -4.65625 C 4.375 -4.351562 4.546875 -3.925781 4.546875 -3.375 L 4.546875 0 L 3.828125 0 L 3.828125 -0.484375 C 3.597656 -0.296875 3.347656 -0.148438 3.078125 -0.046875 C 2.816406 0.046875 2.523438 0.09375 2.203125 0.09375 Z M 1.0625 -1.4375 C 1.0625 -1.15625 1.179688 -0.925781 1.421875 -0.75 C 1.660156 -0.570312 1.96875 -0.484375 2.34375 -0.484375 C 2.644531 -0.484375 2.914062 -0.53125 3.15625 -0.625 C 3.40625 -0.71875 3.628906 -0.863281 3.828125 -1.0625 L 3.828125 -2.015625 C 3.617188 -2.148438 3.394531 -2.25 3.15625 -2.3125 C 2.925781 -2.375 2.664062 -2.40625 2.375 -2.40625 C 1.976562 -2.40625 1.660156 -2.316406 1.421875 -2.140625 C 1.179688 -1.960938 1.0625 -1.726562 1.0625 -1.4375 Z M 1.0625 -1.4375 "/></g></g></g><g fill="#ffffff" fill-opacity="1"><g transform="translate(158.268082, 240.086626)"><g/></g></g><g fill="#ffffff" fill-opacity="1"><g transform="translate(160.41698, 240.086626)"><g><path d="M 4.84375 -0.53125 C 4.570312 -0.320312 4.28125 -0.164062 3.96875 -0.0625 C 3.664062 0.0390625 3.335938 0.09375 2.984375 0.09375 C 2.617188 0.09375 2.273438 0.0234375 1.953125 -0.109375 C 1.640625 -0.242188 1.367188 -0.425781 1.140625 -0.65625 C 0.910156 -0.894531 0.726562 -1.171875 0.59375 -1.484375 C 0.46875 -1.796875 0.40625 -2.140625 0.40625 -2.515625 C 0.40625 -2.867188 0.46875 -3.203125 0.59375 -3.515625 C 0.726562 -3.828125 0.90625 -4.097656 1.125 -4.328125 C 1.34375 -4.566406 1.601562 -4.753906 1.90625 -4.890625 C 2.207031 -5.023438 2.53125 -5.09375 2.875 -5.09375 C 3.207031 -5.09375 3.515625 -5.023438 3.796875 -4.890625 C 4.085938 -4.753906 4.335938 -4.566406 4.546875 -4.328125 C 4.765625 -4.097656 4.929688 -3.828125 5.046875 -3.515625 C 5.171875 -3.203125 5.234375 -2.867188 5.234375 -2.515625 L 5.234375 -2.28125 L 1.125 -2.28125 C 1.175781 -1.789062 1.378906 -1.378906 1.734375 -1.046875 C 2.085938 -0.722656 2.515625 -0.5625 3.015625 -0.5625 C 3.273438 -0.5625 3.523438 -0.597656 3.765625 -0.671875 C 4.015625 -0.753906 4.222656 -0.867188 4.390625 -1.015625 Z M 2.84375 -4.4375 C 2.414062 -4.4375 2.039062 -4.289062 1.71875 -4 C 1.40625 -3.707031 1.21875 -3.332031 1.15625 -2.875 L 4.5 -2.875 C 4.4375 -3.3125 4.25 -3.679688 3.9375 -3.984375 C 3.625 -4.285156 3.257812 -4.4375 2.84375 -4.4375 Z M 2.84375 -4.4375 "/></g></g></g><g fill="#ffffff" fill-opacity="1"><g transform="translate(166.054091, 240.086626)"><g><path d="M 0.625 0 L 0.625 -5.015625 L 1.375 -5.015625 L 1.375 -4.453125 C 1.5625 -4.671875 1.773438 -4.832031 2.015625 -4.9375 C 2.265625 -5.050781 2.539062 -5.109375 2.84375 -5.109375 C 3.1875 -5.109375 3.492188 -5.023438 3.765625 -4.859375 C 4.046875 -4.703125 4.265625 -4.484375 4.421875 -4.203125 C 4.628906 -4.503906 4.875 -4.726562 5.15625 -4.875 C 5.445312 -5.03125 5.773438 -5.109375 6.140625 -5.109375 C 6.679688 -5.109375 7.125 -4.925781 7.46875 -4.5625 C 7.8125 -4.207031 7.984375 -3.742188 7.984375 -3.171875 L 7.984375 0 L 7.25 0 L 7.25 -3.015625 C 7.25 -3.460938 7.128906 -3.8125 6.890625 -4.0625 C 6.660156 -4.320312 6.347656 -4.453125 5.953125 -4.453125 C 5.679688 -4.453125 5.429688 -4.382812 5.203125 -4.25 C 4.972656 -4.113281 4.78125 -3.910156 4.625 -3.640625 C 4.632812 -3.566406 4.644531 -3.488281 4.65625 -3.40625 C 4.664062 -3.332031 4.671875 -3.253906 4.671875 -3.171875 L 4.671875 0 L 3.9375 0 L 3.9375 -3.015625 C 3.9375 -3.460938 3.816406 -3.8125 3.578125 -4.0625 C 3.347656 -4.320312 3.039062 -4.453125 2.65625 -4.453125 C 2.382812 -4.453125 2.140625 -4.390625 1.921875 -4.265625 C 1.703125 -4.148438 1.519531 -3.972656 1.375 -3.734375 L 1.375 0 Z M 0.625 0 "/></g></g></g><g fill="#ffffff" fill-opacity="1"><g transform="translate(174.639682, 240.086626)"><g/></g></g><g fill="#ffffff" fill-opacity="1"><g transform="translate(176.788579, 240.086626)"><g><path d="M 1.34375 -5.015625 L 1.34375 -1.984375 C 1.34375 -1.546875 1.46875 -1.195312 1.71875 -0.9375 C 1.96875 -0.675781 2.304688 -0.546875 2.734375 -0.546875 C 3.035156 -0.546875 3.304688 -0.613281 3.546875 -0.75 C 3.785156 -0.882812 3.976562 -1.078125 4.125 -1.328125 L 4.125 -5.015625 L 4.859375 -5.015625 L 4.859375 0 L 4.125 0 L 4.125 -0.578125 C 3.925781 -0.347656 3.695312 -0.175781 3.4375 -0.0625 C 3.175781 0.0390625 2.878906 0.09375 2.546875 0.09375 C 1.972656 0.09375 1.503906 -0.0820312 1.140625 -0.4375 C 0.785156 -0.800781 0.609375 -1.269531 0.609375 -1.84375 L 0.609375 -5.015625 Z M 1.34375 -5.015625 "/></g></g></g><g fill="#ffffff" fill-opacity="1"><g transform="translate(182.275768, 240.086626)"><g><path d="M 0.625 0 L 0.625 -5.015625 L 1.375 -5.015625 L 1.375 -4.453125 C 1.5625 -4.671875 1.773438 -4.832031 2.015625 -4.9375 C 2.265625 -5.050781 2.539062 -5.109375 2.84375 -5.109375 C 3.1875 -5.109375 3.492188 -5.023438 3.765625 -4.859375 C 4.046875 -4.703125 4.265625 -4.484375 4.421875 -4.203125 C 4.628906 -4.503906 4.875 -4.726562 5.15625 -4.875 C 5.445312 -5.03125 5.773438 -5.109375 6.140625 -5.109375 C 6.679688 -5.109375 7.125 -4.925781 7.46875 -4.5625 C 7.8125 -4.207031 7.984375 -3.742188 7.984375 -3.171875 L 7.984375 0 L 7.25 0 L 7.25 -3.015625 C 7.25 -3.460938 7.128906 -3.8125 6.890625 -4.0625 C 6.660156 -4.320312 6.347656 -4.453125 5.953125 -4.453125 C 5.679688 -4.453125 5.429688 -4.382812 5.203125 -4.25 C 4.972656 -4.113281 4.78125 -3.910156 4.625 -3.640625 C 4.632812 -3.566406 4.644531 -3.488281 4.65625 -3.40625 C 4.664062 -3.332031 4.671875 -3.253906 4.671875 -3.171875 L 4.671875 0 L 3.9375 0 L 3.9375 -3.015625 C 3.9375 -3.460938 3.816406 -3.8125 3.578125 -4.0625 C 3.347656 -4.320312 3.039062 -4.453125 2.65625 -4.453125 C 2.382812 -4.453125 2.140625 -4.390625 1.921875 -4.265625 C 1.703125 -4.148438 1.519531 -3.972656 1.375 -3.734375 L 1.375 0 Z M 0.625 0 "/></g></g></g><g fill="#ffffff" fill-opacity="1"><g transform="translate(190.86136, 240.086626)"><g/></g></g><g fill="#ffffff" fill-opacity="1"><g transform="translate(193.010257, 240.086626)"><g><path d="M 0.125 -0.6875 L 0.5625 -1.171875 C 0.789062 -0.953125 1.046875 -0.785156 1.328125 -0.671875 C 1.617188 -0.554688 1.910156 -0.5 2.203125 -0.5 C 2.597656 -0.5 2.921875 -0.582031 3.171875 -0.75 C 3.429688 -0.914062 3.5625 -1.132812 3.5625 -1.40625 C 3.5625 -1.613281 3.484375 -1.78125 3.328125 -1.90625 C 3.179688 -2.03125 2.945312 -2.113281 2.625 -2.15625 L 1.765625 -2.28125 C 1.265625 -2.351562 0.890625 -2.5 0.640625 -2.71875 C 0.398438 -2.945312 0.28125 -3.25 0.28125 -3.625 C 0.28125 -4.050781 0.457031 -4.398438 0.8125 -4.671875 C 1.164062 -4.953125 1.613281 -5.09375 2.15625 -5.09375 C 2.519531 -5.09375 2.863281 -5.035156 3.1875 -4.921875 C 3.507812 -4.816406 3.820312 -4.65625 4.125 -4.4375 L 3.734375 -3.9375 C 3.453125 -4.113281 3.179688 -4.25 2.921875 -4.34375 C 2.660156 -4.4375 2.394531 -4.484375 2.125 -4.484375 C 1.78125 -4.484375 1.5 -4.40625 1.28125 -4.25 C 1.0625 -4.101562 0.953125 -3.90625 0.953125 -3.65625 C 0.953125 -3.445312 1.023438 -3.28125 1.171875 -3.15625 C 1.328125 -3.039062 1.566406 -2.960938 1.890625 -2.921875 L 2.765625 -2.796875 C 3.265625 -2.734375 3.640625 -2.585938 3.890625 -2.359375 C 4.140625 -2.128906 4.265625 -1.820312 4.265625 -1.4375 C 4.265625 -1.226562 4.210938 -1.023438 4.109375 -0.828125 C 4.003906 -0.640625 3.859375 -0.476562 3.671875 -0.34375 C 3.492188 -0.207031 3.28125 -0.0976562 3.03125 -0.015625 C 2.78125 0.0546875 2.515625 0.09375 2.234375 0.09375 C 1.816406 0.09375 1.425781 0.0234375 1.0625 -0.109375 C 0.695312 -0.242188 0.382812 -0.4375 0.125 -0.6875 Z M 0.125 -0.6875 "/></g></g></g><g fill="#ffffff" fill-opacity="1"><g transform="translate(197.467972, 240.086626)"><g><path d="M 1 -5.96875 C 0.863281 -5.96875 0.742188 -6.015625 0.640625 -6.109375 C 0.546875 -6.210938 0.5 -6.332031 0.5 -6.46875 C 0.5 -6.613281 0.546875 -6.734375 0.640625 -6.828125 C 0.742188 -6.921875 0.863281 -6.96875 1 -6.96875 C 1.132812 -6.96875 1.25 -6.921875 1.34375 -6.828125 C 1.445312 -6.734375 1.5 -6.613281 1.5 -6.46875 C 1.5 -6.332031 1.445312 -6.210938 1.34375 -6.109375 C 1.25 -6.015625 1.132812 -5.96875 1 -5.96875 Z M 1.375 -5.015625 L 1.375 0 L 0.625 0 L 0.625 -5.015625 Z M 1.375 -5.015625 "/></g></g></g><g fill="#ffffff" fill-opacity="1"><g transform="translate(199.466948, 240.086626)"><g><path d="M 0.625 0 L 0.625 -5.015625 L 1.375 -5.015625 L 1.375 -4.453125 C 1.5625 -4.671875 1.773438 -4.832031 2.015625 -4.9375 C 2.265625 -5.050781 2.539062 -5.109375 2.84375 -5.109375 C 3.1875 -5.109375 3.492188 -5.023438 3.765625 -4.859375 C 4.046875 -4.703125 4.265625 -4.484375 4.421875 -4.203125 C 4.628906 -4.503906 4.875 -4.726562 5.15625 -4.875 C 5.445312 -5.03125 5.773438 -5.109375 6.140625 -5.109375 C 6.679688 -5.109375 7.125 -4.925781 7.46875 -4.5625 C 7.8125 -4.207031 7.984375 -3.742188 7.984375 -3.171875 L 7.984375 0 L 7.25 0 L 7.25 -3.015625 C 7.25 -3.460938 7.128906 -3.8125 6.890625 -4.0625 C 6.660156 -4.320312 6.347656 -4.453125 5.953125 -4.453125 C 5.679688 -4.453125 5.429688 -4.382812 5.203125 -4.25 C 4.972656 -4.113281 4.78125 -3.910156 4.625 -3.640625 C 4.632812 -3.566406 4.644531 -3.488281 4.65625 -3.40625 C 4.664062 -3.332031 4.671875 -3.253906 4.671875 -3.171875 L 4.671875 0 L 3.9375 0 L 3.9375 -3.015625 C 3.9375 -3.460938 3.816406 -3.8125 3.578125 -4.0625 C 3.347656 -4.320312 3.039062 -4.453125 2.65625 -4.453125 C 2.382812 -4.453125 2.140625 -4.390625 1.921875 -4.265625 C 1.703125 -4.148438 1.519531 -3.972656 1.375 -3.734375 L 1.375 0 Z M 0.625 0 "/></g></g></g><g fill="#ffffff" fill-opacity="1"><g transform="translate(208.052539, 240.086626)"><g><path d="M 0.625 2.046875 L 0.625 -5.015625 L 1.359375 -5.015625 L 1.359375 -4.46875 C 1.578125 -4.675781 1.820312 -4.832031 2.09375 -4.9375 C 2.375 -5.039062 2.671875 -5.09375 2.984375 -5.09375 C 3.335938 -5.09375 3.664062 -5.023438 3.96875 -4.890625 C 4.28125 -4.753906 4.546875 -4.570312 4.765625 -4.34375 C 4.992188 -4.113281 5.171875 -3.835938 5.296875 -3.515625 C 5.429688 -3.203125 5.5 -2.867188 5.5 -2.515625 C 5.5 -2.148438 5.429688 -1.804688 5.296875 -1.484375 C 5.171875 -1.171875 4.992188 -0.894531 4.765625 -0.65625 C 4.546875 -0.425781 4.28125 -0.242188 3.96875 -0.109375 C 3.65625 0.015625 3.320312 0.078125 2.96875 0.078125 C 2.675781 0.078125 2.390625 0.03125 2.109375 -0.0625 C 1.835938 -0.164062 1.59375 -0.3125 1.375 -0.5 L 1.375 2.046875 Z M 2.90625 -4.4375 C 2.59375 -4.4375 2.300781 -4.375 2.03125 -4.25 C 1.757812 -4.125 1.539062 -3.953125 1.375 -3.734375 L 1.375 -1.265625 C 1.539062 -1.046875 1.757812 -0.875 2.03125 -0.75 C 2.3125 -0.625 2.601562 -0.5625 2.90625 -0.5625 C 3.4375 -0.5625 3.878906 -0.75 4.234375 -1.125 C 4.585938 -1.5 4.765625 -1.957031 4.765625 -2.5 C 4.765625 -2.769531 4.71875 -3.023438 4.625 -3.265625 C 4.53125 -3.503906 4.398438 -3.707031 4.234375 -3.875 C 4.066406 -4.050781 3.867188 -4.1875 3.640625 -4.28125 C 3.410156 -4.382812 3.164062 -4.4375 2.90625 -4.4375 Z M 2.90625 -4.4375 "/></g></g></g><g fill="#ffffff" fill-opacity="1"><g transform="translate(213.949518, 240.086626)"><g><path d="M 1.375 -7.171875 L 1.375 0 L 0.625 0 L 0.625 -7 Z M 1.375 -7.171875 "/></g></g></g><g fill="#ffffff" fill-opacity="1"><g transform="translate(215.948494, 240.086626)"><g><path d="M 4.84375 -0.53125 C 4.570312 -0.320312 4.28125 -0.164062 3.96875 -0.0625 C 3.664062 0.0390625 3.335938 0.09375 2.984375 0.09375 C 2.617188 0.09375 2.273438 0.0234375 1.953125 -0.109375 C 1.640625 -0.242188 1.367188 -0.425781 1.140625 -0.65625 C 0.910156 -0.894531 0.726562 -1.171875 0.59375 -1.484375 C 0.46875 -1.796875 0.40625 -2.140625 0.40625 -2.515625 C 0.40625 -2.867188 0.46875 -3.203125 0.59375 -3.515625 C 0.726562 -3.828125 0.90625 -4.097656 1.125 -4.328125 C 1.34375 -4.566406 1.601562 -4.753906 1.90625 -4.890625 C 2.207031 -5.023438 2.53125 -5.09375 2.875 -5.09375 C 3.207031 -5.09375 3.515625 -5.023438 3.796875 -4.890625 C 4.085938 -4.753906 4.335938 -4.566406 4.546875 -4.328125 C 4.765625 -4.097656 4.929688 -3.828125 5.046875 -3.515625 C 5.171875 -3.203125 5.234375 -2.867188 5.234375 -2.515625 L 5.234375 -2.28125 L 1.125 -2.28125 C 1.175781 -1.789062 1.378906 -1.378906 1.734375 -1.046875 C 2.085938 -0.722656 2.515625 -0.5625 3.015625 -0.5625 C 3.273438 -0.5625 3.523438 -0.597656 3.765625 -0.671875 C 4.015625 -0.753906 4.222656 -0.867188 4.390625 -1.015625 Z M 2.84375 -4.4375 C 2.414062 -4.4375 2.039062 -4.289062 1.71875 -4 C 1.40625 -3.707031 1.21875 -3.332031 1.15625 -2.875 L 4.5 -2.875 C 4.4375 -3.3125 4.25 -3.679688 3.9375 -3.984375 C 3.625 -4.285156 3.257812 -4.4375 2.84375 -4.4375 Z M 2.84375 -4.4375 "/></g></g></g><g fill="#ffffff" fill-opacity="1"><g transform="translate(221.585605, 240.086626)"><g><path d="M 0.125 -0.6875 L 0.5625 -1.171875 C 0.789062 -0.953125 1.046875 -0.785156 1.328125 -0.671875 C 1.617188 -0.554688 1.910156 -0.5 2.203125 -0.5 C 2.597656 -0.5 2.921875 -0.582031 3.171875 -0.75 C 3.429688 -0.914062 3.5625 -1.132812 3.5625 -1.40625 C 3.5625 -1.613281 3.484375 -1.78125 3.328125 -1.90625 C 3.179688 -2.03125 2.945312 -2.113281 2.625 -2.15625 L 1.765625 -2.28125 C 1.265625 -2.351562 0.890625 -2.5 0.640625 -2.71875 C 0.398438 -2.945312 0.28125 -3.25 0.28125 -3.625 C 0.28125 -4.050781 0.457031 -4.398438 0.8125 -4.671875 C 1.164062 -4.953125 1.613281 -5.09375 2.15625 -5.09375 C 2.519531 -5.09375 2.863281 -5.035156 3.1875 -4.921875 C 3.507812 -4.816406 3.820312 -4.65625 4.125 -4.4375 L 3.734375 -3.9375 C 3.453125 -4.113281 3.179688 -4.25 2.921875 -4.34375 C 2.660156 -4.4375 2.394531 -4.484375 2.125 -4.484375 C 1.78125 -4.484375 1.5 -4.40625 1.28125 -4.25 C 1.0625 -4.101562 0.953125 -3.90625 0.953125 -3.65625 C 0.953125 -3.445312 1.023438 -3.28125 1.171875 -3.15625 C 1.328125 -3.039062 1.566406 -2.960938 1.890625 -2.921875 L 2.765625 -2.796875 C 3.265625 -2.734375 3.640625 -2.585938 3.890625 -2.359375 C 4.140625 -2.128906 4.265625 -1.820312 4.265625 -1.4375 C 4.265625 -1.226562 4.210938 -1.023438 4.109375 -0.828125 C 4.003906 -0.640625 3.859375 -0.476562 3.671875 -0.34375 C 3.492188 -0.207031 3.28125 -0.0976562 3.03125 -0.015625 C 2.78125 0.0546875 2.515625 0.09375 2.234375 0.09375 C 1.816406 0.09375 1.425781 0.0234375 1.0625 -0.109375 C 0.695312 -0.242188 0.382812 -0.4375 0.125 -0.6875 Z M 0.125 -0.6875 "/></g></g></g><g fill="#ffffff" fill-opacity="1"><g transform="translate(226.04332, 240.086626)"><g/></g></g><g fill="#ffffff" fill-opacity="1"><g transform="translate(228.192217, 240.086626)"><g><path d="M 2.96875 -0.578125 C 3.238281 -0.578125 3.492188 -0.628906 3.734375 -0.734375 C 3.984375 -0.847656 4.21875 -1.003906 4.4375 -1.203125 L 4.890625 -0.703125 C 4.617188 -0.453125 4.316406 -0.253906 3.984375 -0.109375 C 3.648438 0.0234375 3.304688 0.09375 2.953125 0.09375 C 2.597656 0.09375 2.265625 0.0234375 1.953125 -0.109375 C 1.640625 -0.242188 1.367188 -0.425781 1.140625 -0.65625 C 0.910156 -0.894531 0.726562 -1.171875 0.59375 -1.484375 C 0.46875 -1.804688 0.40625 -2.148438 0.40625 -2.515625 C 0.40625 -2.867188 0.46875 -3.203125 0.59375 -3.515625 C 0.726562 -3.835938 0.910156 -4.113281 1.140625 -4.34375 C 1.367188 -4.582031 1.640625 -4.769531 1.953125 -4.90625 C 2.265625 -5.039062 2.597656 -5.109375 2.953125 -5.109375 C 3.304688 -5.109375 3.65625 -5.035156 4 -4.890625 C 4.34375 -4.753906 4.644531 -4.5625 4.90625 -4.3125 L 4.4375 -3.78125 C 4.238281 -3.988281 4.007812 -4.148438 3.75 -4.265625 C 3.488281 -4.378906 3.222656 -4.4375 2.953125 -4.4375 C 2.703125 -4.4375 2.460938 -4.382812 2.234375 -4.28125 C 2.015625 -4.175781 1.820312 -4.035156 1.65625 -3.859375 C 1.488281 -3.691406 1.359375 -3.488281 1.265625 -3.25 C 1.171875 -3.019531 1.125 -2.773438 1.125 -2.515625 C 1.125 -2.234375 1.171875 -1.972656 1.265625 -1.734375 C 1.367188 -1.503906 1.5 -1.300781 1.65625 -1.125 C 1.820312 -0.957031 2.019531 -0.820312 2.25 -0.71875 C 2.476562 -0.625 2.71875 -0.578125 2.96875 -0.578125 Z M 2.96875 -0.578125 "/></g></g></g><g fill="#ffffff" fill-opacity="1"><g transform="translate(233.31959, 240.086626)"><g><path d="M 1.375 -7.171875 L 1.375 0 L 0.625 0 L 0.625 -7 Z M 1.375 -7.171875 "/></g></g></g><g fill="#ffffff" fill-opacity="1"><g transform="translate(235.318566, 240.086626)"><g><path d="M 1 -5.96875 C 0.863281 -5.96875 0.742188 -6.015625 0.640625 -6.109375 C 0.546875 -6.210938 0.5 -6.332031 0.5 -6.46875 C 0.5 -6.613281 0.546875 -6.734375 0.640625 -6.828125 C 0.742188 -6.921875 0.863281 -6.96875 1 -6.96875 C 1.132812 -6.96875 1.25 -6.921875 1.34375 -6.828125 C 1.445312 -6.734375 1.5 -6.613281 1.5 -6.46875 C 1.5 -6.332031 1.445312 -6.210938 1.34375 -6.109375 C 1.25 -6.015625 1.132812 -5.96875 1 -5.96875 Z M 1.375 -5.015625 L 1.375 0 L 0.625 0 L 0.625 -5.015625 Z M 1.375 -5.015625 "/></g></g></g><g fill="#ffffff" fill-opacity="1"><g transform="translate(237.317541, 240.086626)"><g><path d="M 2.96875 -0.578125 C 3.238281 -0.578125 3.492188 -0.628906 3.734375 -0.734375 C 3.984375 -0.847656 4.21875 -1.003906 4.4375 -1.203125 L 4.890625 -0.703125 C 4.617188 -0.453125 4.316406 -0.253906 3.984375 -0.109375 C 3.648438 0.0234375 3.304688 0.09375 2.953125 0.09375 C 2.597656 0.09375 2.265625 0.0234375 1.953125 -0.109375 C 1.640625 -0.242188 1.367188 -0.425781 1.140625 -0.65625 C 0.910156 -0.894531 0.726562 -1.171875 0.59375 -1.484375 C 0.46875 -1.804688 0.40625 -2.148438 0.40625 -2.515625 C 0.40625 -2.867188 0.46875 -3.203125 0.59375 -3.515625 C 0.726562 -3.835938 0.910156 -4.113281 1.140625 -4.34375 C 1.367188 -4.582031 1.640625 -4.769531 1.953125 -4.90625 C 2.265625 -5.039062 2.597656 -5.109375 2.953125 -5.109375 C 3.304688 -5.109375 3.65625 -5.035156 4 -4.890625 C 4.34375 -4.753906 4.644531 -4.5625 4.90625 -4.3125 L 4.4375 -3.78125 C 4.238281 -3.988281 4.007812 -4.148438 3.75 -4.265625 C 3.488281 -4.378906 3.222656 -4.4375 2.953125 -4.4375 C 2.703125 -4.4375 2.460938 -4.382812 2.234375 -4.28125 C 2.015625 -4.175781 1.820312 -4.035156 1.65625 -3.859375 C 1.488281 -3.691406 1.359375 -3.488281 1.265625 -3.25 C 1.171875 -3.019531 1.125 -2.773438 1.125 -2.515625 C 1.125 -2.234375 1.171875 -1.972656 1.265625 -1.734375 C 1.367188 -1.503906 1.5 -1.300781 1.65625 -1.125 C 1.820312 -0.957031 2.019531 -0.820312 2.25 -0.71875 C 2.476562 -0.625 2.71875 -0.578125 2.96875 -0.578125 Z M 2.96875 -0.578125 "/></g></g></g><g fill="#ffffff" fill-opacity="1"><g transform="translate(242.444914, 240.086626)"><g><path d="M 0.625 0 L 0.625 -7 L 1.375 -7.171875 L 1.375 -2.75 L 3.984375 -5.015625 L 4.890625 -5.015625 L 2.140625 -2.625 L 5.015625 0 L 4.015625 0 L 1.375 -2.40625 L 1.375 0 Z M 0.625 0 "/></g></g></g><g fill="#ffffff" fill-opacity="1"><g transform="translate(247.382381, 240.086626)"><g><path d="M 0.6875 -1.9375 L 0.59375 -7.171875 L 1.375 -7.171875 L 1.28125 -1.9375 Z M 0.984375 0.0625 C 0.847656 0.0625 0.726562 0.015625 0.625 -0.078125 C 0.53125 -0.179688 0.484375 -0.304688 0.484375 -0.453125 C 0.484375 -0.585938 0.53125 -0.703125 0.625 -0.796875 C 0.726562 -0.898438 0.847656 -0.953125 0.984375 -0.953125 C 1.128906 -0.953125 1.25 -0.898438 1.34375 -0.796875 C 1.445312 -0.703125 1.5 -0.585938 1.5 -0.453125 C 1.5 -0.304688 1.445312 -0.179688 1.34375 -0.078125 C 1.25 0.015625 1.128906 0.0625 0.984375 0.0625 Z M 0.984375 0.0625 "/></g></g></g></svg>